<?xml version="1.0" encoding="utf-8"?>
<!-- Generator: Adobe Illustrator 17.0.0, SVG Export Plug-In . SVG Version: 6.00 Build 0)  -->
<!DOCTYPE svg PUBLIC "-//W3C//DTD SVG 1.1//EN" "http://www.w3.org/Graphics/SVG/1.1/DTD/svg11.dtd">
<svg version="1.1" id="Layer_1" xmlns="http://www.w3.org/2000/svg" xmlns:xlink="http://www.w3.org/1999/xlink" x="0px" y="0px"
	 width="185px" height="230px" viewBox="0 0 185 230" enable-background="new 0 0 185 230" xml:space="preserve">
<rect fill="#FFFFFF" width="185" height="230"/>
<g>
	<circle fill="#BE1E2D" cx="70.083" cy="80.946" r="22.768"/>
	<g>
		<g>
			<path d="M96.746,94.706c0.417,0.881,0.474,0.937,1.091,1.066c-0.008,0.199-0.186,0.092-0.273,0.15
				c-0.15,0.101-0.11,0.243-0.089,0.377c0.019,0.12,0.1,0.172,0.216,0.114c0.46-0.228,0.657,0.222,0.989,0.372
				c0.194-0.105,0.069-0.429,0.317-0.519c0.165,0.126-0.036,0.246-0.009,0.37c0.021,0.096,0.019,0.22,0.143,0.231
				c0.121,0.011,0.17-0.092,0.173-0.197c0.007-0.289,0.13-0.353,0.382-0.222c0.039,0.021,0.154-0.016,0.154-0.018
				c-0.077-0.758,0.43-0.289,0.686-0.321c0.614-0.076,0.962-0.611,1.483-0.852c0.163-0.075,0.017-0.245-0.063-0.353
				c-0.086-0.116-0.34-0.055-0.316-0.308c0.619-0.056,0.853,0.406,1.132,0.949c0.141-0.382,0.129-0.744,0.608-0.811
				c-0.318-0.246-0.567-0.28-0.814-0.299c-0.154-0.012-0.289-0.009-0.265-0.217c0.032-0.285-0.214-0.253-0.312-0.195
				c-0.436,0.253-0.932,0.111-1.391,0.239c-0.237,0.066-0.662,0.006-0.63-0.448c0.016-0.226-0.153-0.233-0.25-0.342
				c-0.275-0.308-0.461-0.65-0.04-1.027c0.259,0.186,0.037,0.801,0.231,0.64c0.358-0.298,0.726,0.29,0.965-0.145
				c0.083-0.151,0.121-0.288,0.023-0.483c-0.148,0.171-0.302,0.483-0.44,0.003c-0.057-0.197-0.275-0.34-0.294-0.574
				c-0.02-0.251-0.305-0.314-0.389-0.282c-0.665,0.253-0.57-0.234-0.583-0.68c-0.245,0.181-0.355,0.539-0.689,0.325
				c-0.357-0.229-0.103-0.488-0.06-0.742c0.084-0.489,0.441-0.8,0.749-1.133c2.484-2.682,5.333-4.895,8.668-6.402
				c2.814-1.271,5.785-2.071,8.852-2.485c2.775-0.374,5.565-0.527,8.362-0.568c0.753-0.011,0.901,0.161,0.476,0.75
				c-0.97,1.344-1.355,2.867-1.6,4.465c-0.497,3.25-2.091,5.982-3.987,8.607c-2.048,2.836-4.701,5.039-7.449,7.071
				c-2.728,2.017-5.788,3.57-9.192,4.203c-2.632,0.49-5.296,0.776-7.965,0.987c-0.332,0.026-0.553,0.145-0.76,0.389
				c-0.461,0.542-0.67,1.179-0.733,1.867c-0.178,1.938-0.181,3.873,0.169,5.795c0.101,0.557,0.084,1.116,0.083,1.674
				c-0.005,3.38,0.235,6.751,0.363,10.126c0.075,1.98-0.18,3.951-0.237,5.928c-0.014,0.497,0.147,0.558,0.529,0.379
				c0.323-0.152,0.651-0.293,0.928-0.536c3.723-3.266,7.461-6.518,11.355-9.577c2.402-1.887,5.031-3.423,7.969-4.42
				c2.775-0.941,5.613-1.572,8.496-1.952c3.783-0.498,7.572-0.493,11.36,0.189c3.072,0.553,6.083,1.276,9,2.388
				c0.401,0.153,0.713,0.438,1.093,0.615c2.498,1.161,5.05,2.188,7.645,3.109c0.997,0.354,1.997,0.698,3.001,1.027
				c0.24,0.078,0.422,0.193,0.55,0.404c0,0.04,0,0.08,0,0.12c-0.436,0.468-0.914,0.867-1.499,1.156
				c-2.379,1.175-4.338,2.869-5.831,5.049c-1.138,1.662-2.747,2.786-4.303,3.945c-2.46,1.832-4.958,3.639-7.675,5.074
				c-1.779,0.939-3.692,1.601-5.639,2.157c-3.351,0.958-6.759,1.576-10.225,1.904c-0.981,0.093-1.944,0.004-2.913-0.141
				c-1.727-0.258-3.47-0.353-5.21-0.477c-2.223-0.158-4.302-0.955-6.423-1.557c-1.567-0.445-2.973-1.263-4.409-1.988
				c-2.621-1.323-5.129-2.85-7.522-4.558c-0.239-0.17-0.45-0.389-0.562,0.122c-0.989,4.524-2.932,8.751-4.132,13.211
				c-1.595,5.928-2.593,11.943-2.794,18.089c-0.124,3.777-0.138,7.555-0.252,11.331c-0.027,0.896-0.143,1.789-0.209,2.684
				c-0.028,0.374-0.227,0.531-0.586,0.522c-0.42-0.01-0.839-0.02-1.259-0.025c-0.51-0.007-0.73-0.276-0.672-0.767
				c0.116-0.967,0.193-1.942,0.383-2.895c0.294-1.475,0.434-2.965,0.538-4.459c0.192-2.772,0.339-5.547,0.52-8.319
				c0.243-3.709,0.397-7.43,0.975-11.106c0.444-2.822,0.872-5.654,1.567-8.428c0.495-1.976-0.107-3.574-1.425-4.983
				c-0.524-0.56-0.606-0.527-1.074,0.076c-0.845,1.088-1.986,1.73-3.277,2.104c-2.07,0.6-4.159,0.929-6.33,0.527
				c-1.195-0.222-2.421-0.278-3.635-0.39c-2.244-0.207-4.3-0.978-6.101-2.288c-3.363-2.447-6.747-4.863-10.14-7.267
				c-1.863-1.32-3.027-3.159-4.043-5.124c-1.159-2.243-1.923-4.651-2.88-6.979c-0.944-2.295-1.984-4.539-3.327-6.638
				c-0.259-0.404-0.507-0.797-0.797-1.185c-1.026-1.376-2.176-2.664-3.049-4.153c-0.109-0.187-0.254-0.371-0.425-0.5
				c-0.329-0.248-0.273-0.54-0.172-0.859c0.113-0.357,0.402-0.268,0.649-0.247c2.267,0.196,4.533,0.388,6.789,0.698
				c2.947,0.405,5.898,0.78,8.842,1.209c1.243,0.181,2.472,0.466,3.706,0.707c0.117,0.023,0.257,0.038,0.339,0.111
				c1.133,0.997,2.594,0.948,3.944,1.217c0.832,0.166,1.602,0.454,2.384,0.764c2.695,1.068,5.008,2.758,7.215,4.559
				c2.775,2.264,5.307,4.816,7.371,7.751c1.167,1.659,1.983,3.561,3.043,5.301c1.522,2.498,1.555,5.181,1.167,7.941
				c-0.025,0.177-0.094,0.356,0.032,0.52c0.773,1,1.186,2.165,1.55,3.355c0.042,0.136,0.056,0.324,0.29,0.399
				c0.27-1.371,0.604-2.724,0.788-4.097c0.225-1.687,0.542-3.356,0.948-5.001c0.412-1.669,0.44-3.367,0.56-5.055
				c0.406-5.683,0.681-11.374,0.866-17.07c0.014-0.416-0.062-0.709-0.409-0.974c-0.531-0.405-0.839-1.006-1.195-1.56
				c-1.855,1.462-3.829,1.386-5.921,0.597c-3.455-1.304-6.007-3.662-7.994-6.696c-1.073-1.638-2.142-3.282-3.122-4.976
				c-0.883-1.528-1.496-3.181-1.75-4.942c-0.071-0.492-0.421-0.909-0.361-1.483c0.421,0.034,0.764,0.238,1.123,0.374
				c1.689,0.638,3.451,1.015,5.202,1.406c3.32,0.742,6.204,2.255,8.662,4.601c1.845,1.762,3.567,3.624,4.559,6.019
				c0.489,1.181,0.49,2.455,0.357,3.711c-0.064,0.61,0.462,1.753,1.01,2.026c0.221,0.11,0.347,0.009,0.439-0.164
				c0.481-0.906,1.091-1.716,1.786-2.468c0.259-0.281,0.165-0.687,0.248-1.032c0.107-0.446,0.162-0.904,0.248-1.355
				c0.022-0.114,0.056-0.306,0.115-0.318c0.413-0.089,0.305-0.332,0.16-0.572c0.08-0.026,0.116-0.046,0.152-0.048
				c0.205-0.012,0.391,0.359,0.574,0.105c0.185-0.257-0.144-0.408-0.265-0.597c-0.083-0.13-0.181-0.25-0.264-0.364
				c0.144-0.2,0.22-0.04,0.315,0.001c0.155,0.066,0.316,0.101,0.424-0.071c0.079-0.127,0.094-0.269-0.032-0.382
				c-0.147-0.132-0.269-0.305-0.097-0.454c0.147-0.128,0.283,0.075,0.411,0.152c0.405,0.242,0.798,0.492,0.998-0.218
				c0.055-0.196,0.183-0.192,0.304-0.046c0.147,0.177,0.332,0.189,0.602,0.156c-0.189-0.295-0.518-0.47-0.361-0.898
				c0.04-0.11-0.442-0.438-0.714-0.623c-0.099-0.067-0.196,0.099-0.258,0.201c-0.101,0.165-0.171,0.363,0.035,0.471
				c0.448,0.236,0.039,0.466-0.036,0.612c-0.133,0.257-0.284-0.042-0.43-0.093c-0.037-0.013-0.07-0.039-0.103-0.06
				c-0.377-0.237-0.402-0.512-0.42-0.975c-0.017-0.436-0.021-0.855,0.065-1.281c0.082-0.405,0.261-0.723,0.717-0.719
				c0.221,0.002,0.244-0.177,0.361-0.266c0.083-0.063,0.115-0.169,0.028-0.261c-0.097-0.102-0.172-0.033-0.246,0.043
				c-0.108,0.111-0.225,0.29-0.389,0.142c-0.134-0.121-0.026-0.304,0.027-0.45c0.12-0.334,0.129-0.71,0.368-1L96.746,94.706z
				 M111.587,133.671c-0.264,0.019-0.404,0.116-0.411,0.37c-0.01,0.332,0.044,0.675-0.171,0.976
				c-0.056,0.079-0.054,0.202,0.072,0.244c0.128,0.043,0.174-0.048,0.197-0.154c0.036-0.168,0.009-0.379,0.282-0.368
				c0.252,0.009,0.421-0.06,0.398-0.372c-0.012-0.16,0.106-0.26,0.28-0.202c0.159,0.053,0.307,0.062,0.266-0.151
				c-0.025-0.131-0.095-0.4-0.269-0.313C111.971,133.83,111.773,133.721,111.587,133.671z M108.078,130.867
				c0.135-0.395,0.583-0.142,0.84-0.368c0.149-0.131,0.289-0.31,0.181-0.518c-0.093-0.179-0.279-0.29-0.488-0.285
				c-0.221,0.005-0.298,0.158-0.285,0.367c0.016,0.253-0.034,0.398-0.327,0.223c-0.167-0.1-0.32-0.055-0.341,0.162
				C107.633,130.689,107.793,130.797,108.078,130.867z M102.503,90.61c0.148-0.279,0.198-0.573,0.584-0.615
				c0.195-0.021,0.13-0.256-0.032-0.349c-0.429-0.247-0.674,0.116-0.882,0.352C101.818,90.404,102.474,90.323,102.503,90.61z
				 M96.21,132.586c0.301,0.002,0.286-0.251,0.337-0.423c0.083-0.282-0.101-0.411-0.344-0.441c-0.185-0.023-0.315,0.096-0.303,0.284
				C95.916,132.24,95.926,132.497,96.21,132.586z M128.674,135.105c0.278,0.1,0.451-0.089,0.457-0.302
				c0.014-0.427-0.467-0.064-0.647-0.341c-0.084-0.129-0.191,0.182-0.226,0.31C128.152,135.162,128.5,135.025,128.674,135.105z
				 M104.024,90.386c-0.021-0.196,0.001-0.436-0.315-0.365c-0.159,0.036-0.394,0.019-0.378,0.285
				c0.018,0.307,0.278,0.387,0.503,0.423C104.117,90.774,103.946,90.5,104.024,90.386z M102.282,103.129
				c-0.025,0.072-0.225,0.126-0.081,0.253c0.23,0.203,0.407,0.413,0.448,0.732c0.013,0.098,0.155,0.116,0.252,0.061
				c0.081-0.046,0.175-0.099,0.219-0.175C103.168,103.918,102.421,103.111,102.282,103.129z M97.502,100.225
				c-0.413,0.373-0.184,0.652,0.065,0.926c0.089,0.097,0.177,0.271,0.33,0.15c0.126-0.1,0.06-0.278-0.015-0.386
				C97.735,100.702,97.479,100.557,97.502,100.225z M69.585,118.05c-0.109-0.171,0.006-0.522-0.354-0.518
				c-0.267,0.003-0.303,0.255-0.309,0.439c-0.011,0.322,0.307,0.245,0.487,0.311C69.562,118.337,69.606,118.204,69.585,118.05z
				 M99.578,98.138c0.256-0.15,0.505-0.287,0.807-0.296c0.069-0.002,0.168,0.012,0.176-0.103c0.008-0.121-0.082-0.164-0.173-0.206
				C99.792,97.26,99.728,97.757,99.578,98.138z M107.54,90.544c0.057-0.34,0.41-0.567,0.201-0.948
				c-0.044-0.079-0.14-0.071-0.208-0.013c-0.289,0.248-0.24,0.559-0.155,0.874C107.382,90.47,107.411,90.476,107.54,90.544z
				 M103.295,101.18c0.176-0.131,0.479-0.156,0.519-0.465c0.014-0.107-0.081-0.188-0.194-0.159
				c-0.248,0.064-0.512,0.129-0.536,0.454C103.075,101.122,103.146,101.19,103.295,101.18z M120.043,117.185
				c0.43,0.209,0.643-0.07,0.867-0.307c0.059-0.063,0.085-0.164-0.004-0.2c-0.323-0.129-0.49,0.167-0.716,0.294
				C120.131,117.004,120.104,117.092,120.043,117.185z M117.893,126.168c-0.234,0.023-0.337,0.123-0.32,0.315
				c0.012,0.141,0.113,0.353,0.226,0.237c0.191-0.197,0.609,0.01,0.611-0.286C118.412,126.198,117.994,126.372,117.893,126.168z
				 M101.235,101.584c0.099-0.161-0.003-0.253-0.042-0.359c-0.08-0.216-0.258-0.285-0.462-0.309c-0.1-0.012-0.135,0.074-0.141,0.153
				c-0.02,0.246,0.199,0.255,0.345,0.336C101.031,101.46,101.056,101.622,101.235,101.584z M113.024,134.93
				c-0.055-0.145-0.025-0.384-0.283-0.361c-0.176,0.015-0.279,0.175-0.283,0.333c-0.006,0.257,0.233,0.22,0.392,0.251
				C113.009,135.184,113.058,135.086,113.024,134.93z"/>
			<path d="M97.464,92.72c-0.04-0.442,0.311-0.232,0.467-0.293c0.149-0.059,0.44,0.059,0.379,0.25
				c-0.09,0.281-0.309,0.653-0.573,0.663C97.462,93.351,97.553,92.919,97.464,92.72z"/>
			<path d="M96.761,94.723c0.015-0.166-0.01-0.473,0.195-0.39c0.245,0.099,0.617-0.006,0.739,0.332
				c0.066,0.183-0.021,0.29-0.238,0.291c-0.271,0.001-0.485-0.137-0.712-0.25C96.746,94.706,96.761,94.723,96.761,94.723z"/>
		</g>
	</g>
	<rect x="7.5" y="10.047" fill="none" stroke="#231F20" stroke-width="2.8346" stroke-miterlimit="10" width="170" height="170"/>
	<circle fill="none" stroke="#231F20" stroke-width="2.8346" stroke-miterlimit="10" cx="92.5" cy="95.047" r="85"/>
</g>
<text transform="matrix(1 0 0 1 9.7534 217.4033)" fill="#231F20" font-family="'PlayfairDisplay-Medium'" font-size="33">CAMELLIA</text>
</svg>
